<mxfile host="app.diagrams.net" agent="Mozilla/5.0 (Windows NT 10.0; Win64; x64) AppleWebKit/537.36 (KHTML, like Gecko) Chrome/133.0.0.0 Safari/537.36" version="26.0.16">
  <diagram id="C5RBs43oDa-KdzZeNtuy" name="Page-1">
    <mxGraphModel dx="5106" dy="2582" grid="1" gridSize="10" guides="1" tooltips="1" connect="1" arrows="1" fold="1" page="1" pageScale="1" pageWidth="827" pageHeight="1169" math="0" shadow="0">
      <root>
        <mxCell id="WIyWlLk6GJQsqaUBKTNV-0" />
        <mxCell id="WIyWlLk6GJQsqaUBKTNV-1" parent="WIyWlLk6GJQsqaUBKTNV-0" />
        <mxCell id="WIyWlLk6GJQsqaUBKTNV-2" value="" style="rounded=0;html=1;jettySize=auto;orthogonalLoop=1;fontSize=11;endArrow=block;endFill=0;endSize=8;strokeWidth=1;shadow=0;labelBackgroundColor=none;edgeStyle=orthogonalEdgeStyle;entryX=0.5;entryY=0;entryDx=0;entryDy=0;" parent="WIyWlLk6GJQsqaUBKTNV-1" source="WIyWlLk6GJQsqaUBKTNV-3" target="DPkHhstAXT9IOm-LiI8P-1" edge="1">
          <mxGeometry relative="1" as="geometry">
            <mxPoint x="220.00000000000023" y="170" as="targetPoint" />
          </mxGeometry>
        </mxCell>
        <mxCell id="WIyWlLk6GJQsqaUBKTNV-3" value="Usuário realiza a pesquisa da sequência genética no site do GenBank" style="rounded=1;whiteSpace=wrap;html=1;fontSize=12;glass=0;strokeWidth=1;shadow=0;" parent="WIyWlLk6GJQsqaUBKTNV-1" vertex="1">
          <mxGeometry x="150" y="100" width="140" height="60" as="geometry" />
        </mxCell>
        <mxCell id="DPkHhstAXT9IOm-LiI8P-8" value="" style="edgeStyle=orthogonalEdgeStyle;rounded=0;orthogonalLoop=1;jettySize=auto;html=1;" edge="1" parent="WIyWlLk6GJQsqaUBKTNV-1" source="DPkHhstAXT9IOm-LiI8P-0" target="WIyWlLk6GJQsqaUBKTNV-3">
          <mxGeometry relative="1" as="geometry" />
        </mxCell>
        <mxCell id="DPkHhstAXT9IOm-LiI8P-0" value="&lt;b&gt;O QUE SERÁ PRODUZIDO?&amp;nbsp;&lt;/b&gt;&lt;div&gt;O software a ser produzido é um integrador com páginas de web, e será utilizado para navegar no site do GenBank (banco de dados médicos, mundialmente alimentado).&amp;nbsp;&lt;/div&gt;&lt;div&gt;O algoritmo irá:&amp;nbsp;&lt;/div&gt;&lt;div&gt;1. acessar automaticamente a URL com a&amp;nbsp;&lt;span style=&quot;background-color: transparent; color: light-dark(rgb(0, 0, 0), rgb(255, 255, 255));&quot;&gt;pesquisa feita pelo usuário no então site,&amp;nbsp;&lt;/span&gt;&lt;/div&gt;&lt;div&gt;&lt;span style=&quot;background-color: transparent; color: light-dark(rgb(0, 0, 0), rgb(255, 255, 255));&quot;&gt;2. clicar n&lt;/span&gt;&lt;span style=&quot;background-color: transparent; color: light-dark(rgb(0, 0, 0), rgb(255, 255, 255));&quot;&gt;os links gerados na página da URL oferecida pelo usuário,&amp;nbsp;&lt;/span&gt;&lt;/div&gt;&lt;div&gt;&lt;span style=&quot;background-color: transparent; color: light-dark(rgb(0, 0, 0), rgb(255, 255, 255));&quot;&gt;3. baixar os conteúdos de cada link no formato FASTA,&lt;/span&gt;&lt;/div&gt;&lt;div&gt;&lt;span style=&quot;background-color: transparent; color: light-dark(rgb(0, 0, 0), rgb(255, 255, 255));&quot;&gt;4. organizar os dados baixados em uma pasta no diretório do usuário, com o nome especificado de cada link clicado&lt;/span&gt;&lt;/div&gt;" style="shape=process;whiteSpace=wrap;html=1;backgroundOutline=1;" vertex="1" parent="WIyWlLk6GJQsqaUBKTNV-1">
          <mxGeometry x="-32.5" y="-120" width="505" height="180" as="geometry" />
        </mxCell>
        <mxCell id="DPkHhstAXT9IOm-LiI8P-3" value="" style="edgeStyle=orthogonalEdgeStyle;rounded=0;orthogonalLoop=1;jettySize=auto;html=1;" edge="1" parent="WIyWlLk6GJQsqaUBKTNV-1" source="DPkHhstAXT9IOm-LiI8P-1" target="DPkHhstAXT9IOm-LiI8P-2">
          <mxGeometry relative="1" as="geometry" />
        </mxCell>
        <mxCell id="DPkHhstAXT9IOm-LiI8P-1" value="Usuário copia a URL da pesquisa feita no site GenBank e copia no local informado no sistema (se for um website, colocar um local para isso)" style="rounded=1;whiteSpace=wrap;html=1;" vertex="1" parent="WIyWlLk6GJQsqaUBKTNV-1">
          <mxGeometry x="146.25" y="230" width="147.5" height="110" as="geometry" />
        </mxCell>
        <mxCell id="DPkHhstAXT9IOm-LiI8P-5" value="" style="edgeStyle=orthogonalEdgeStyle;rounded=0;orthogonalLoop=1;jettySize=auto;html=1;" edge="1" parent="WIyWlLk6GJQsqaUBKTNV-1" source="DPkHhstAXT9IOm-LiI8P-2" target="DPkHhstAXT9IOm-LiI8P-4">
          <mxGeometry relative="1" as="geometry" />
        </mxCell>
        <mxCell id="DPkHhstAXT9IOm-LiI8P-2" value="Algoritmo irá ler a URL e irá até a página informada, clicando em cada link da página oferecida pelo usuário" style="whiteSpace=wrap;html=1;rounded=1;" vertex="1" parent="WIyWlLk6GJQsqaUBKTNV-1">
          <mxGeometry x="150" y="400" width="140" height="110" as="geometry" />
        </mxCell>
        <mxCell id="DPkHhstAXT9IOm-LiI8P-7" value="" style="edgeStyle=orthogonalEdgeStyle;rounded=0;orthogonalLoop=1;jettySize=auto;html=1;" edge="1" parent="WIyWlLk6GJQsqaUBKTNV-1" source="DPkHhstAXT9IOm-LiI8P-4" target="DPkHhstAXT9IOm-LiI8P-6">
          <mxGeometry relative="1" as="geometry" />
        </mxCell>
        <mxCell id="DPkHhstAXT9IOm-LiI8P-4" value="Depois, o algoritmo irá baixar cada base de dados de cada link aberto e baixar os dados na máquina do usuário&lt;div&gt;&lt;br&gt;&lt;/div&gt;" style="whiteSpace=wrap;html=1;rounded=1;" vertex="1" parent="WIyWlLk6GJQsqaUBKTNV-1">
          <mxGeometry x="150" y="570" width="140" height="110" as="geometry" />
        </mxCell>
        <mxCell id="DPkHhstAXT9IOm-LiI8P-6" value="&lt;div&gt;Após, encontrar uma forma de organizar os arquivos em uma pasta do diretório do usuário, para permitir melhor organização e não precisar que o usuário tenha o trabalho de criar uma nova pasta e colar todos os itens para lá&lt;/div&gt;" style="whiteSpace=wrap;html=1;rounded=1;" vertex="1" parent="WIyWlLk6GJQsqaUBKTNV-1">
          <mxGeometry x="140" y="760" width="160" height="170" as="geometry" />
        </mxCell>
        <mxCell id="DPkHhstAXT9IOm-LiI8P-11" value="" style="edgeStyle=orthogonalEdgeStyle;rounded=0;orthogonalLoop=1;jettySize=auto;html=1;entryX=0;entryY=0.5;entryDx=0;entryDy=0;" edge="1" parent="WIyWlLk6GJQsqaUBKTNV-1" source="DPkHhstAXT9IOm-LiI8P-9" target="DPkHhstAXT9IOm-LiI8P-0">
          <mxGeometry relative="1" as="geometry">
            <mxPoint x="-155" y="-35" as="targetPoint" />
          </mxGeometry>
        </mxCell>
        <mxCell id="DPkHhstAXT9IOm-LiI8P-13" value="" style="edgeStyle=orthogonalEdgeStyle;rounded=0;orthogonalLoop=1;jettySize=auto;html=1;" edge="1" parent="WIyWlLk6GJQsqaUBKTNV-1" source="DPkHhstAXT9IOm-LiI8P-9" target="DPkHhstAXT9IOm-LiI8P-12">
          <mxGeometry relative="1" as="geometry" />
        </mxCell>
        <mxCell id="DPkHhstAXT9IOm-LiI8P-15" value="" style="edgeStyle=orthogonalEdgeStyle;rounded=0;orthogonalLoop=1;jettySize=auto;html=1;" edge="1" parent="WIyWlLk6GJQsqaUBKTNV-1" source="DPkHhstAXT9IOm-LiI8P-9" target="DPkHhstAXT9IOm-LiI8P-14">
          <mxGeometry relative="1" as="geometry" />
        </mxCell>
        <mxCell id="DPkHhstAXT9IOm-LiI8P-17" value="" style="edgeStyle=orthogonalEdgeStyle;rounded=0;orthogonalLoop=1;jettySize=auto;html=1;entryX=0.5;entryY=0;entryDx=0;entryDy=0;" edge="1" parent="WIyWlLk6GJQsqaUBKTNV-1" source="DPkHhstAXT9IOm-LiI8P-9" target="DPkHhstAXT9IOm-LiI8P-18">
          <mxGeometry relative="1" as="geometry">
            <mxPoint x="-515" y="350" as="targetPoint" />
          </mxGeometry>
        </mxCell>
        <mxCell id="DPkHhstAXT9IOm-LiI8P-9" value="&lt;font style=&quot;font-size: 24px;&quot;&gt;PROGRAMA PRO TIO EMERSON QUE EU NÃO SEI O NOME AINDA&lt;/font&gt;" style="ellipse;whiteSpace=wrap;html=1;aspect=fixed;" vertex="1" parent="WIyWlLk6GJQsqaUBKTNV-1">
          <mxGeometry x="-680" y="-195" width="330" height="330" as="geometry" />
        </mxCell>
        <mxCell id="DPkHhstAXT9IOm-LiI8P-12" value="&lt;b&gt;QUE INFORMAÇÃO SERÁ PROCESSADA?&lt;/b&gt;&lt;div&gt;Será processada os dados derivados da pesquisa do usuário no site específico (banco de dados GenBank sobre HPV, nome do site: PaVE).&amp;nbsp;&lt;/div&gt;" style="whiteSpace=wrap;html=1;" vertex="1" parent="WIyWlLk6GJQsqaUBKTNV-1">
          <mxGeometry x="-692.5" y="-620" width="355" height="190" as="geometry" />
        </mxCell>
        <mxCell id="DPkHhstAXT9IOm-LiI8P-14" value="&lt;p&gt;&lt;b&gt;&lt;font style=&quot;font-size: 14px;&quot;&gt;FUNCIONALIDADES E DESEMPENHO ESPERADOS&lt;/font&gt;&lt;/b&gt;&lt;/p&gt;&lt;div&gt;&lt;span style=&quot;font-size: 14px;&quot;&gt;Serão esperados que o algoritmo acesse a URL fornecida pelo usuário, e faça o download dos dados de cada link do website, no formato FASTA.&lt;/span&gt;&lt;/div&gt;" style="whiteSpace=wrap;html=1;" vertex="1" parent="WIyWlLk6GJQsqaUBKTNV-1">
          <mxGeometry x="-1280" y="-125" width="335" height="190" as="geometry" />
        </mxCell>
        <mxCell id="DPkHhstAXT9IOm-LiI8P-18" value="&lt;font size=&quot;3&quot;&gt;&lt;b&gt;QUAL INTERFACE?&lt;/b&gt;&lt;/font&gt;&lt;div&gt;&lt;br&gt;&lt;/div&gt;&lt;div&gt;&lt;font size=&quot;3&quot;&gt;A interface escolhida foi um website, pela praticidade para o usuário acessar. A website deve ser simples com um campo de descrição com os sites que funciona o algoritmo e instruções para o usuário proceder a atividade. Além disso, a interface web deve ter um campo de texto para que o usuário insira a URL do site que deseja fazer download&lt;/font&gt;&lt;/div&gt;" style="whiteSpace=wrap;html=1;aspect=fixed;" vertex="1" parent="WIyWlLk6GJQsqaUBKTNV-1">
          <mxGeometry x="-657.5" y="320" width="285" height="285" as="geometry" />
        </mxCell>
        <mxCell id="DPkHhstAXT9IOm-LiI8P-19" value="&lt;font style=&quot;font-size: 18px;&quot;&gt;&lt;b&gt;RESTRIÇÕES DO PROJETO&lt;/b&gt;&lt;/font&gt;&lt;div&gt;&lt;font style=&quot;font-size: 18px;&quot;&gt;&lt;b&gt;&lt;br&gt;&lt;/b&gt;&lt;/font&gt;&lt;/div&gt;&lt;div&gt;&lt;font style=&quot;font-size: 18px;&quot;&gt;1º O projeto em questão se restringe ao site da PaVE (site com banco de dados médicos, filiado ao GenBank).&amp;nbsp;&lt;/font&gt;&lt;/div&gt;&lt;div&gt;&lt;font style=&quot;font-size: 18px;&quot;&gt;&lt;br&gt;&lt;/font&gt;&lt;/div&gt;&lt;div&gt;&lt;font style=&quot;font-size: 18px;&quot;&gt;2º O programa também se restringe à ação do usuário de realizar, antecipadamente, a pesquisa no site da PaVE. Assim, o usuário já terá em mãos a URL da página com os links contendo os dados que irão ser baixados.&lt;/font&gt;&lt;/div&gt;&lt;div&gt;&lt;font style=&quot;font-size: 18px;&quot;&gt;&lt;br&gt;&lt;/font&gt;&lt;/div&gt;&lt;div&gt;&lt;span style=&quot;font-size: 18px; background-color: transparent; color: light-dark(rgb(0, 0, 0), rgb(255, 255, 255));&quot;&gt;3º Somente depois dessa pesquisa o usuário irá utilizar o programa ao copiar e colar a URL dessa página pesquisada no campo de texto inserido na interface web do programa criado&lt;/span&gt;&lt;/div&gt;" style="shape=process;whiteSpace=wrap;html=1;backgroundOutline=1;" vertex="1" parent="WIyWlLk6GJQsqaUBKTNV-1">
          <mxGeometry x="-1660" y="160" width="840" height="560" as="geometry" />
        </mxCell>
        <mxCell id="DPkHhstAXT9IOm-LiI8P-20" value="&lt;b&gt;&lt;font style=&quot;font-size: 18px;&quot;&gt;CRITÉRIOS DE VALIDAÇÃO&lt;/font&gt;&lt;/b&gt;&lt;div&gt;&lt;span style=&quot;font-size: 18px;&quot;&gt;&lt;b&gt;&lt;br&gt;&lt;/b&gt;&lt;/span&gt;&lt;div&gt;&lt;font style=&quot;font-size: 18px;&quot;&gt;Parcerias com Testers&lt;/font&gt;&lt;/div&gt;&lt;/div&gt;" style="shape=process;whiteSpace=wrap;html=1;backgroundOutline=1;" vertex="1" parent="WIyWlLk6GJQsqaUBKTNV-1">
          <mxGeometry x="-1660" y="880" width="900" height="410" as="geometry" />
        </mxCell>
      </root>
    </mxGraphModel>
  </diagram>
</mxfile>
